<svg width="365" height="355" viewBox="0 0 365 355" fill="none" xmlns="http://www.w3.org/2000/svg">
<rect width="364.21" height="354.974" rx="67.2554" fill="#F5F5F5"/>
<path d="M276.749 189.221C282.133 190.849 285.436 196.38 283.795 201.76C282.161 207.12 276.4 209.783 271.036 208.163L220.703 192.966C206.772 188.77 192.761 199.221 192.761 213.83V265.864C192.761 271.948 188.151 277.132 182.066 277.132C176.918 277.132 173.029 272.792 173.029 267.644V213.83C173.029 199.221 158.979 188.77 145.048 192.966L93.261 208.608C87.9084 210.225 82.1578 207.598 80.4913 202.26C78.8052 196.86 82.1156 191.275 87.5315 189.641L138.023 174.399C152.231 170.123 158.072 153.14 149.508 140.986L118.759 97.356C115.519 92.7594 116.267 86.4068 120.861 83.164C125.447 79.9275 131.689 81.347 134.919 85.9369L165.136 128.872C173.818 141.144 191.972 141.144 200.615 128.872L230.293 86.7493C233.569 82.0998 239.911 80.6977 244.506 84.0494C248.985 87.3162 249.666 93.5757 246.472 98.1065L216.243 140.986C207.719 153.14 213.52 170.123 227.728 174.399L276.749 189.221Z" fill="#0A0B0C"/>
</svg>
