<svg width="109" height="20" viewBox="0 0 109 20" fill="none" xmlns="http://www.w3.org/2000/svg">
<path d="M29.555 15.8498C28.4852 15.8498 27.5209 15.6032 26.6622 15.1101C25.8175 14.617 25.1559 13.9407 24.6773 13.0813C24.2127 12.2219 23.9805 11.2568 23.9805 10.1861C23.9805 9.11537 24.2127 8.1503 24.6773 7.29089C25.1559 6.43148 25.8175 5.76227 26.6622 5.28325C27.5209 4.79015 28.4852 4.5436 29.555 4.5436C30.6249 4.5436 31.5822 4.79015 32.4268 5.28325C33.2714 5.76227 33.9331 6.43148 34.4117 7.29089C34.8903 8.13621 35.1296 9.10128 35.1296 10.1861C35.1296 11.2568 34.8903 12.2219 34.4117 13.0813C33.9331 13.9407 33.2714 14.617 32.4268 15.1101C31.5822 15.6032 30.6249 15.8498 29.555 15.8498ZM29.555 13.6097C30.1322 13.6097 30.639 13.4688 31.0754 13.187C31.5258 12.8911 31.8707 12.4826 32.1101 11.9613C32.3634 11.44 32.4901 10.8483 32.4901 10.1861C32.4901 9.52394 32.3634 8.93926 32.1101 8.43207C31.8707 7.91079 31.5258 7.50926 31.0754 7.22749C30.6249 6.93163 30.1181 6.78369 29.555 6.78369C28.9779 6.78369 28.4641 6.93163 28.0136 7.22749C27.5631 7.50926 27.2182 7.91079 26.9789 8.43207C26.7396 8.95335 26.6199 9.53803 26.6199 10.1861C26.6199 10.8624 26.7396 11.4611 26.9789 11.9824C27.2182 12.4896 27.5561 12.8911 27.9925 13.187C28.4429 13.4688 28.9638 13.6097 29.555 13.6097Z" fill="#0A0B0C"/>
<path d="M36.6919 4.71266H39.268V6.4667C39.5777 5.86089 40 5.38892 40.5349 5.05079C41.0839 4.71266 41.7245 4.5436 42.4565 4.5436C43.3293 4.5436 44.0542 4.72675 44.6314 5.09305C45.2226 5.44527 45.645 5.95951 45.8983 6.63576C46.208 6.02995 46.6796 5.5298 47.3131 5.13532C47.9466 4.74084 48.6786 4.5436 49.5091 4.5436C50.2834 4.5436 50.9661 4.69857 51.5574 5.00852C52.1486 5.31847 52.5991 5.75522 52.9088 6.31877C53.2326 6.88232 53.3945 7.53039 53.3945 8.26301V15.6807H50.8183V8.96039C50.8183 8.27005 50.6353 7.73468 50.2693 7.35429C49.9033 6.9598 49.4036 6.76256 48.7701 6.76256C47.9958 6.76256 47.3905 7.06547 46.9541 7.67128C46.5318 8.27709 46.3207 9.09424 46.3207 10.1227V15.6807H43.7445V8.96039C43.7445 8.27005 43.5615 7.73468 43.1955 7.35429C42.8436 6.9598 42.3509 6.76256 41.7174 6.76256C41.2106 6.76256 40.7672 6.90345 40.3871 7.18522C40.0211 7.46699 39.7396 7.86148 39.5425 8.36867C39.3595 8.87586 39.268 9.46054 39.268 10.1227V15.6807H36.6919V4.71266Z" fill="#0A0B0C"/>
<path d="M55.4519 4.71266H58.028V6.44557C58.3941 5.85384 58.8868 5.38892 59.5062 5.05079C60.1256 4.71266 60.8083 4.5436 61.5544 4.5436C62.3427 4.5436 63.0325 4.70562 63.6237 5.02966C64.2291 5.35369 64.7006 5.81158 65.0385 6.4033C65.3764 6.99503 65.5453 7.68537 65.5453 8.47434V15.6807H62.948V9.08719C62.948 8.42502 62.751 7.88966 62.3568 7.48108C61.9767 7.05842 61.4629 6.84709 60.8153 6.84709C60.2382 6.84709 59.7384 7.00911 59.3161 7.33315C58.9079 7.6431 58.5911 8.10099 58.3659 8.7068C58.1407 9.29852 58.028 10.017 58.028 10.8624V15.6807H55.4519V4.71266Z" fill="#0A0B0C"/>
<path d="M67.5927 4.71266H70.1688V15.6807H67.5927V4.71266ZM67.5927 13.504H70.1688V15.6807H67.5927V13.504ZM67.5927 4.71266H69.3242V6.88936H67.5927V4.71266ZM68.8596 3.23335C68.4232 3.23335 68.0432 3.07837 67.7194 2.76842C67.4097 2.44439 67.2548 2.06399 67.2548 1.62724C67.2548 1.19049 67.4097 0.810099 67.7194 0.486059C68.0432 0.16202 68.4232 0 68.8596 0C69.296 0 69.6761 0.16202 69.9999 0.486059C70.3237 0.810099 70.4855 1.19049 70.4855 1.62724C70.4855 2.06399 70.3237 2.44439 69.9999 2.76842C69.6761 3.07837 69.296 3.23335 68.8596 3.23335Z" fill="#0A0B0C"/>
<path d="M72.3939 4.71266H74.6955V6.12857C75.0052 5.66365 75.4627 5.28325 76.068 4.98739C76.6874 4.69153 77.3631 4.5436 78.0952 4.5436C79.1369 4.5436 80.0449 4.7831 80.8191 5.26212C81.6074 5.74113 82.2057 6.41035 82.6139 7.26975C83.0222 8.11507 83.2263 9.08719 83.2263 10.1861C83.2263 11.285 83.0081 12.2642 82.5717 13.1236C82.1494 13.9689 81.537 14.6381 80.7346 15.1312C79.9463 15.6102 79.0172 15.8498 77.9473 15.8498C77.2998 15.8498 76.6804 15.7159 76.0892 15.4482C75.4979 15.1805 75.0334 14.8283 74.6955 14.3916V19.6326H72.3939V4.71266ZM77.7151 13.8421C78.3485 13.8421 78.9046 13.6942 79.3832 13.3983C79.8618 13.0884 80.2279 12.6587 80.4812 12.1092C80.7487 11.5598 80.8824 10.9187 80.8824 10.1861C80.8824 9.46759 80.7487 8.8336 80.4812 8.28414C80.2279 7.73468 79.8618 7.31202 79.3832 7.01616C78.9046 6.70621 78.3485 6.55123 77.7151 6.55123C77.0957 6.55123 76.5396 6.70621 76.0469 7.01616C75.5683 7.31202 75.1953 7.73468 74.9278 8.28414C74.6744 8.8336 74.5477 9.46759 74.5477 10.1861C74.5477 10.9187 74.6744 11.5598 74.9278 12.1092C75.1953 12.6587 75.5683 13.0884 76.0469 13.3983C76.5396 13.6942 77.0957 13.8421 77.7151 13.8421Z" fill="#0A0B0C"/>
<path d="M89.5719 15.8498C88.488 15.8498 87.5518 15.6102 86.7635 15.1312C85.9752 14.6522 85.3699 13.983 84.9476 13.1236C84.5393 12.2642 84.3352 11.285 84.3352 10.1861C84.3352 9.08719 84.5464 8.11507 84.9687 7.26975C85.391 6.41035 85.9893 5.74113 86.7635 5.26212C87.5518 4.7831 88.4739 4.5436 89.5297 4.5436C90.2195 4.5436 90.86 4.69153 91.4512 4.98739C92.0565 5.26916 92.5281 5.64251 92.866 6.10744V4.71266H95.1676V15.6807H92.866V14.2648C92.6126 14.7156 92.1833 15.096 91.5779 15.406C90.9726 15.7018 90.3039 15.8498 89.5719 15.8498ZM89.8675 13.8421C90.4869 13.8421 91.036 13.6942 91.5146 13.3983C91.9932 13.0884 92.3662 12.6587 92.6337 12.1092C92.9012 11.5598 93.0349 10.9187 93.0349 10.1861C93.0349 9.46759 92.9012 8.8336 92.6337 8.28414C92.3662 7.73468 91.9932 7.31202 91.5146 7.01616C91.036 6.70621 90.4869 6.55123 89.8675 6.55123C89.2341 6.55123 88.678 6.70621 88.1994 7.01616C87.7208 7.31202 87.3477 7.73468 87.0803 8.28414C86.8269 8.8336 86.7002 9.46759 86.7002 10.1861C86.7002 10.9046 86.8269 11.5457 87.0803 12.1092C87.3477 12.6587 87.7208 13.0884 88.1994 13.3983C88.678 13.6942 89.2341 13.8421 89.8675 13.8421Z" fill="#0A0B0C"/>
<path d="M97.459 4.71266H99.7606V15.6807H97.459V4.71266ZM97.459 13.7365H99.7606V15.6807H97.459V13.7365ZM97.459 4.71266H99.0005V6.6569H97.459V4.71266ZM98.5993 3.08542C98.191 3.08542 97.8391 2.93749 97.5435 2.64163C97.2478 2.34576 97.1 1.99355 97.1 1.58498C97.1 1.1764 97.2478 0.824187 97.5435 0.528326C97.8391 0.232463 98.191 0.0845322 98.5993 0.0845322C99.0075 0.0845322 99.3594 0.232463 99.6551 0.528326C99.9507 0.824187 100.098 1.1764 100.098 1.58498C100.098 2.00764 99.9507 2.3669 99.6551 2.66276C99.3594 2.94453 99.0075 3.08542 98.5993 3.08542Z" fill="#0A0B0C"/>
<path d="M108.535 6.80483C108.197 6.7203 107.831 6.67803 107.437 6.67803C106.874 6.67803 106.36 6.85414 105.896 7.20635C105.431 7.55857 105.058 8.10803 104.776 8.85473C104.495 9.58734 104.354 10.4961 104.354 11.5809V15.6807H102.053V4.71266H104.354V6.80483C104.608 6.15675 105.058 5.62138 105.706 5.19872C106.353 4.76197 107.029 4.5436 107.733 4.5436C108.071 4.5436 108.338 4.56473 108.535 4.60699V6.80483ZM102.053 13.7365H104.354V15.6807H102.053V13.7365ZM102.053 4.71266H103.024V6.6569H102.053V4.71266Z" fill="#0A0B0C"/>
<path d="M17.1509 11.5516C17.6149 11.6897 17.8995 12.1586 17.7582 12.6147C17.6173 13.0693 17.1207 13.2951 16.6584 13.1577L12.3227 11.8692C11.1225 11.5134 9.91555 12.3996 9.91555 13.6383V18.0509C9.91555 18.5666 9.51835 19.006 8.99418 19.006C8.55066 19.006 8.21558 18.6382 8.21558 18.2018V13.6383C8.21558 12.3996 7.00522 11.5134 5.80505 11.8692L1.34407 13.1954C0.882715 13.3326 0.387033 13.1098 0.243448 12.6571C0.0982223 12.1993 0.383453 11.7259 0.850103 11.5872L5.19985 10.2948C6.42382 9.93228 6.92702 8.49216 6.18924 7.46159L3.53999 3.76165C3.26103 3.37204 3.32544 2.83369 3.72112 2.55878C4.11624 2.28425 4.65427 2.40464 4.93259 2.79389L7.5356 6.43437C8.28358 7.47502 9.84754 7.47502 10.5921 6.43437L13.1487 2.86278C13.431 2.46848 13.9776 2.34956 14.3736 2.63386C14.7593 2.9108 14.818 3.44126 14.5429 3.8253L11.9385 7.46159C11.2041 8.49216 11.7039 9.93228 12.9279 10.2948L17.1509 11.5516Z" fill="#0A0B0C"/>
<path d="M9.91555 18.0509V13.6383C9.91555 12.3996 11.1225 11.5134 12.3227 11.8692L16.6584 13.1577C17.1063 13.2908 17.5863 13.083 17.7439 12.6567L17.7582 12.6147C17.895 12.1728 17.6322 11.719 17.1939 11.5656L17.1509 11.5516L12.9279 10.2948C11.7039 9.93228 11.2041 8.49216 11.9385 7.46159L14.5429 3.8253C14.8094 3.45326 14.7627 2.94379 14.4088 2.66053L14.3736 2.63386C13.9776 2.34956 13.431 2.46848 13.1487 2.86278L10.5921 6.43437C9.84754 7.47502 8.28358 7.47502 7.5356 6.43437L4.93259 2.79389C4.65427 2.40464 4.11624 2.28425 3.72112 2.55878L3.68501 2.58528C3.32175 2.86716 3.26974 3.38421 3.53999 3.76165L6.18924 7.46159C6.92702 8.49216 6.42382 9.93228 5.19985 10.2948L0.850103 11.5872L0.806904 11.6012C0.366057 11.7554 0.102761 12.2136 0.243448 12.6571C0.382568 13.0956 0.852092 13.3184 1.30071 13.2072L1.34407 13.1954L5.80505 11.8692C7.00522 11.5134 8.21558 12.3996 8.21558 13.6383V18.2018L8.21664 18.2425C8.23605 18.6473 8.54367 18.9836 8.95291 19.0049L8.99418 19.006C9.50198 19.006 9.89058 18.5937 9.91436 18.099L9.91555 18.0509ZM10.1206 18.051C10.1206 18.6641 9.64533 19.2078 8.99421 19.2078C8.42464 19.2078 8.01049 18.7366 8.01048 18.2018V13.6384C8.01048 12.5343 6.93216 11.7459 5.86427 12.0625L5.86414 12.0624L1.40335 13.3886C0.847874 13.5537 0.228929 13.2884 0.0477308 12.7173C-0.134821 12.1418 0.226217 11.5618 0.790882 11.394L5.14064 10.1016C6.22999 9.77895 6.67914 8.49635 6.02161 7.57783L3.37232 3.87791C3.0357 3.40778 3.10445 2.74034 3.60289 2.39403C4.10067 2.04818 4.76405 2.20749 5.10034 2.67777L7.70293 6.31784C8.36938 7.24505 9.76173 7.24442 10.4244 6.31821L12.9811 2.74662C13.3217 2.27084 13.9955 2.11267 14.4944 2.47087C14.9808 2.82011 15.0426 3.4781 14.7106 3.94158L12.1061 7.57783C11.4516 8.49697 11.8984 9.77916 12.987 10.1016L12.9872 10.1017L17.2103 11.3585C17.7717 11.5256 18.132 12.1001 17.9543 12.6736C17.7766 13.2472 17.1563 13.5165 16.5991 13.3509L12.2636 12.0624C11.1961 11.7459 10.1206 12.5339 10.1206 13.6384V18.051Z" fill="#0A0B0C"/>
</svg>
