<svg width="250" height="47" viewBox="0 0 250 47" fill="none" xmlns="http://www.w3.org/2000/svg">
<path d="M43.6891 28.102C43.4636 27.1373 42.7499 26.4059 41.7342 26.1L32.3281 23.2568C31.3085 22.9509 30.5242 22.196 30.1752 21.1862C29.8222 20.1685 29.9751 19.0783 30.5928 18.1998C30.5928 18.1998 36.3517 10.0311 36.391 9.9742C37.0067 9.10164 37.1223 8.08985 36.7086 7.19572C36.287 6.28394 35.3635 5.6349 34.3576 5.54667C33.3693 5.45843 32.4536 5.90746 31.8438 6.77806L26.1496 14.8586C25.528 15.741 24.5535 16.2488 23.475 16.2508H23.4711C22.3907 16.2508 21.4122 15.7429 20.7867 14.8586L15.2396 6.97611C15.1611 6.86434 15.0749 6.74277 14.9788 6.631L14.9906 6.62316C14.3768 5.74863 13.4611 5.2996 12.4787 5.3898C11.4748 5.48196 10.5552 6.13295 10.1316 7.05062C9.7179 7.94867 9.83359 8.96242 10.4473 9.8291L16.3474 18.1998C16.9671 19.0783 17.12 20.1646 16.769 21.1803C16.42 22.1921 15.6337 22.949 14.6102 23.2568C14.6102 23.2568 7.53747 25.3921 5.48056 26.0137L4.92369 26.1823C3.9021 26.4922 3.1864 27.2235 2.96287 28.1883C2.73345 29.1726 3.06287 30.253 3.80014 30.9413C4.52172 31.6138 5.51978 31.8217 6.53353 31.5119L16.469 28.5118C17.471 28.2098 18.5279 28.3961 19.371 29.0197C20.2161 29.6471 20.7005 30.6138 20.7005 31.6687V41.9924C20.7005 43.4827 21.875 44.6945 23.3162 44.6945C24.9339 44.6945 26.2496 43.3297 26.2496 41.6493V31.6668C26.2496 30.6099 26.7339 29.6432 27.579 29.0157C28.4183 28.3922 29.4712 28.2079 30.4732 28.5098L39.7146 31.3001C39.8538 31.3413 39.993 31.3844 40.1302 31.4138L40.1263 31.4256C41.1479 31.7373 42.144 31.5295 42.8617 30.8569C43.595 30.1707 43.9205 29.0902 43.6911 28.104L43.6891 28.102Z" fill="white"/>
<path d="M69.1084 37.8558C66.6477 37.8558 64.4298 37.2891 62.4547 36.1559C60.5121 35.0227 58.9903 33.4685 57.8895 31.4935C56.821 29.5184 56.2867 27.3006 56.2867 24.8398C56.2867 22.3791 56.821 20.1612 57.8895 18.1862C58.9903 16.2111 60.5121 14.6732 62.4547 13.5723C64.4298 12.4391 66.6477 11.8725 69.1084 11.8725C71.5691 11.8725 73.7708 12.4391 75.7135 13.5723C77.6562 14.6732 79.1779 16.2111 80.2788 18.1862C81.3796 20.1288 81.9301 22.3467 81.9301 24.8398C81.9301 27.3006 81.3796 29.5184 80.2788 31.4935C79.1779 33.4685 77.6562 35.0227 75.7135 36.1559C73.7708 37.2891 71.5691 37.8558 69.1084 37.8558ZM69.1084 32.7077C70.4359 32.7077 71.6015 32.3839 72.6052 31.7363C73.6413 31.0564 74.4346 30.1174 74.985 28.9195C75.5678 27.7215 75.8592 26.3616 75.8592 24.8398C75.8592 23.3181 75.5678 21.9744 74.985 20.8088C74.4346 19.6108 73.6413 18.688 72.6052 18.0405C71.5691 17.3605 70.4035 17.0206 69.1084 17.0206C67.7809 17.0206 66.5991 17.3605 65.563 18.0405C64.5269 18.688 63.7337 19.6108 63.1832 20.8088C62.6328 22.0068 62.3576 23.3504 62.3576 24.8398C62.3576 26.394 62.6328 27.77 63.1832 28.968C63.7337 30.1336 64.5107 31.0564 65.5145 31.7363C66.5505 32.3839 67.7485 32.7077 69.1084 32.7077Z" fill="white"/>
<path d="M85.5233 12.261H91.4484V16.2921C92.1607 14.8998 93.1321 13.8152 94.3624 13.0381C95.6252 12.261 97.0984 11.8725 98.782 11.8725C100.789 11.8725 102.457 12.2934 103.784 13.1352C105.144 13.9447 106.116 15.1265 106.698 16.6806C107.411 15.2884 108.495 14.1389 109.952 13.2324C111.409 12.3258 113.093 11.8725 115.003 11.8725C116.784 11.8725 118.354 12.2286 119.714 12.941C121.074 13.6533 122.11 14.657 122.823 15.9521C123.567 17.2472 123.94 18.7366 123.94 20.4202V37.4672H118.015V22.023C118.015 20.4364 117.594 19.2061 116.752 18.3319C115.91 17.4253 114.761 16.972 113.304 16.972C111.523 16.972 110.13 17.6681 109.127 19.0604C108.155 20.4526 107.67 22.3305 107.67 24.6941V37.4672H101.745V22.023C101.745 20.4364 101.324 19.2061 100.482 18.3319C99.6724 17.4253 98.5392 16.972 97.0822 16.972C95.9166 16.972 94.8967 17.2958 94.0225 17.9433C93.1806 18.5909 92.5331 19.4975 92.0798 20.6631C91.6589 21.8287 91.4484 23.1724 91.4484 24.6941V37.4672H85.5233V12.261Z" fill="white"/>
<path d="M128.672 12.261H134.597V16.2435C135.439 14.8836 136.572 13.8152 137.997 13.0381C139.421 12.261 140.992 11.8725 142.708 11.8725C144.521 11.8725 146.107 12.2448 147.467 12.9895C148.86 13.7342 149.944 14.7865 150.721 16.1464C151.498 17.5062 151.887 19.0928 151.887 20.9059V37.4672H145.913V22.3144C145.913 20.7926 145.46 19.5622 144.553 18.6233C143.679 17.6519 142.497 17.1663 141.008 17.1663C139.68 17.1663 138.531 17.5386 137.56 18.2833C136.621 18.9956 135.892 20.0479 135.374 21.4402C134.856 22.8 134.597 24.4513 134.597 26.394V37.4672H128.672V12.261Z" fill="white"/>
<path d="M156.596 12.261H162.521V37.4672H156.596V12.261ZM156.596 32.4648H162.521V37.4672H156.596V32.4648ZM156.596 12.261H160.578V17.2634H156.596V12.261ZM159.51 8.86133C158.506 8.86133 157.632 8.50518 156.887 7.79286C156.175 7.04817 155.819 6.17397 155.819 5.17025C155.819 4.16654 156.175 3.29233 156.887 2.54764C157.632 1.80295 158.506 1.4306 159.51 1.4306C160.514 1.4306 161.388 1.80295 162.133 2.54764C162.877 3.29233 163.25 4.16654 163.25 5.17025C163.25 6.17397 162.877 7.04817 162.133 7.79286C161.388 8.50518 160.514 8.86133 159.51 8.86133Z" fill="white"/>
<path d="M167.833 12.261H172.544V15.7093C173.224 14.6084 174.293 13.7018 175.75 12.9895C177.239 12.2448 178.825 11.8725 180.509 11.8725C182.97 11.8725 185.091 12.4391 186.871 13.5723C188.685 14.6732 190.061 16.2111 191 18.1862C191.939 20.1288 192.408 22.3467 192.408 24.8398C192.408 27.3329 191.922 29.567 190.951 31.5421C189.98 33.5171 188.571 35.0713 186.726 36.2045C184.912 37.3053 182.776 37.8558 180.315 37.8558C178.761 37.8558 177.271 37.5158 175.847 36.8359C174.454 36.1559 173.354 35.2817 172.544 34.2132V46.5492H167.833V12.261ZM179.878 33.7276C181.399 33.7276 182.743 33.3552 183.909 32.6105C185.074 31.8658 185.965 30.8297 186.58 29.5023C187.228 28.1748 187.551 26.6206 187.551 24.8398C187.551 23.0914 187.228 21.5535 186.58 20.226C185.965 18.8985 185.074 17.8624 183.909 17.1177C182.743 16.373 181.399 16.0007 179.878 16.0007C178.356 16.0007 177.012 16.373 175.847 17.1177C174.681 17.8624 173.774 18.8985 173.127 20.226C172.512 21.5535 172.204 23.0914 172.204 24.8398C172.204 26.6206 172.512 28.1748 173.127 29.5023C173.774 30.8297 174.681 31.8658 175.847 32.6105C177.012 33.3552 178.356 33.7276 179.878 33.7276Z" fill="white"/>
<path d="M207.055 37.8558C204.562 37.8558 202.409 37.3053 200.596 36.2045C198.783 35.0713 197.406 33.5171 196.468 31.5421C195.529 29.567 195.059 27.3329 195.059 24.8398C195.059 22.3467 195.529 20.1288 196.468 18.1862C197.439 16.2111 198.815 14.6732 200.596 13.5723C202.409 12.4391 204.546 11.8725 207.007 11.8725C208.593 11.8725 210.115 12.2286 211.572 12.941C213.029 13.6533 214.146 14.5598 214.923 15.6607V12.261H219.634V37.4672H214.923V34.019C214.34 35.0874 213.32 35.994 211.863 36.7387C210.406 37.4834 208.804 37.8558 207.055 37.8558ZM207.589 33.7276C209.111 33.7276 210.455 33.3552 211.62 32.6105C212.786 31.8658 213.676 30.8297 214.292 29.5023C214.939 28.1748 215.263 26.6206 215.263 24.8398C215.263 23.0914 214.939 21.5535 214.292 20.226C213.676 18.8985 212.786 17.8624 211.62 17.1177C210.455 16.373 209.111 16.0007 207.589 16.0007C206.068 16.0007 204.724 16.373 203.558 17.1177C202.393 17.8624 201.486 18.8985 200.839 20.226C200.191 21.5535 199.867 23.0914 199.867 24.8398C199.867 26.5882 200.191 28.1424 200.839 29.5023C201.486 30.8297 202.393 31.8658 203.558 32.6105C204.724 33.3552 206.068 33.7276 207.589 33.7276Z" fill="white"/>
<path d="M225.246 12.261H229.957V37.4672H225.246V12.261ZM225.246 33.4362H229.957V37.4672H225.246V33.4362ZM225.246 12.261H228.355V16.2921H225.246V12.261ZM227.578 8.22996C226.703 8.22996 225.943 7.92237 225.295 7.30719C224.68 6.65964 224.372 5.89876 224.372 5.02455C224.372 4.15035 224.68 3.38947 225.295 2.74191C225.943 2.09435 226.703 1.77057 227.578 1.77057C228.452 1.77057 229.213 2.09435 229.86 2.74191C230.508 3.38947 230.832 4.15035 230.832 5.02455C230.832 5.89876 230.508 6.65964 229.86 7.30719C229.213 7.92237 228.452 8.22996 227.578 8.22996Z" fill="white"/>
<path d="M250 16.5349C249.255 16.3406 248.413 16.2435 247.475 16.2435C246.147 16.2435 244.933 16.6806 243.832 17.5548C242.731 18.3966 241.857 19.7079 241.209 21.4887C240.562 23.2371 240.238 25.3903 240.238 27.9481V37.4672H235.527V12.261H240.238V17.2148C240.821 15.6931 241.857 14.4303 243.346 13.4266C244.836 12.3905 246.406 11.8725 248.057 11.8725C248.899 11.8725 249.547 11.9372 250 12.0667V16.5349ZM235.527 33.4362H240.238V37.4672H235.527V33.4362ZM235.527 12.261H237.47V16.2921H235.527V12.261Z" fill="white"/>
</svg>
