<svg width="250" height="46" viewBox="0 0 250 46" fill="none" xmlns="http://www.w3.org/2000/svg">
<path d="M41.2756 26.9834C41.0474 26.0074 40.3254 25.2674 39.2978 24.958L29.7817 22.0815C28.7501 21.772 27.9566 21.0083 27.6035 19.9867C27.2464 18.9571 27.4011 17.8541 28.026 16.9654C28.026 16.9654 33.8523 8.70104 33.892 8.64351C34.5149 7.76073 34.632 6.73711 34.2134 5.83252C33.7869 4.91007 32.8525 4.25344 31.8349 4.16417C30.835 4.07491 29.9086 4.52919 29.2917 5.40998L23.5308 13.5851C22.902 14.4778 21.916 14.9915 20.825 14.9935H20.821C19.728 14.9935 18.7381 14.4797 18.1052 13.5851L12.4932 5.61034C12.4138 5.49726 12.3265 5.37427 12.2293 5.26119L12.2412 5.25326C11.6203 4.3685 10.6939 3.91422 9.70004 4.00547C8.68435 4.09871 7.75397 4.75732 7.32547 5.68572C6.9069 6.59428 7.02394 7.61989 7.64486 8.49671L13.614 16.9654C14.2409 17.8541 14.3956 18.9531 14.0405 19.9807C13.6874 21.0043 12.8919 21.7701 11.8564 22.0815C11.8564 22.0815 4.70096 24.2418 2.61999 24.8707L2.0566 25.0413C1.02306 25.3547 0.29899 26.0947 0.0728416 27.0707C-0.159258 28.0665 0.174013 29.1596 0.919908 29.8559C1.64993 30.5363 2.65967 30.7466 3.68527 30.4331L13.737 27.398C14.7507 27.0925 15.8199 27.2809 16.673 27.9118C17.528 28.5466 18.018 29.5246 18.018 30.5918V41.0364C18.018 42.544 19.2062 43.77 20.6643 43.77C22.3009 43.77 23.632 42.3893 23.632 40.6892V30.5899C23.632 29.5206 24.122 28.5426 24.977 27.9078C25.826 27.277 26.8913 27.0905 27.905 27.396L37.2545 30.2189C37.3953 30.2606 37.5362 30.3042 37.675 30.334L37.6711 30.3459C38.7046 30.6613 39.7124 30.451 40.4384 29.7706C41.1804 29.0763 41.5097 27.9832 41.2776 26.9854L41.2756 26.9834Z" fill="#0A0B0C"/>
<path d="M66.9922 36.8513C64.5027 36.8513 62.2588 36.2781 60.2607 35.1316C58.2953 33.9851 56.7557 32.4128 55.642 30.4146C54.561 28.4165 54.0205 26.1726 54.0205 23.6831C54.0205 21.1936 54.561 18.9498 55.642 16.9516C56.7557 14.9534 58.2953 13.3975 60.2607 12.2838C62.2588 11.1373 64.5027 10.564 66.9922 10.564C69.4817 10.564 71.7091 11.1373 73.6745 12.2838C75.6399 13.3975 77.1795 14.9534 78.2932 16.9516C79.407 18.917 79.9638 21.1608 79.9638 23.6831C79.9638 26.1726 79.407 28.4165 78.2932 30.4146C77.1795 32.4128 75.6399 33.9851 73.6745 35.1316C71.7091 36.2781 69.4817 36.8513 66.9922 36.8513ZM66.9922 31.643C68.3352 31.643 69.5144 31.3154 70.5299 30.6603C71.5781 29.9724 72.3807 29.0225 72.9375 27.8105C73.5271 26.5985 73.8219 25.2227 73.8219 23.6831C73.8219 22.1435 73.5271 20.7841 72.9375 19.6049C72.3807 18.3929 71.5781 17.4593 70.5299 16.8042C69.4817 16.1163 68.3024 15.7724 66.9922 15.7724C65.6491 15.7724 64.4535 16.1163 63.4053 16.8042C62.3571 17.4593 61.5546 18.3929 60.9977 19.6049C60.4408 20.8169 60.1624 22.1763 60.1624 23.6831C60.1624 25.2554 60.4408 26.6476 60.9977 27.8596C61.5546 29.0388 62.3407 29.9724 63.3562 30.6603C64.4044 31.3154 65.6164 31.643 66.9922 31.643Z" fill="#0A0B0C"/>
<path d="M83.5991 10.9571H89.5935V15.0353C90.3142 13.6268 91.2969 12.5294 92.5416 11.7433C93.8192 10.9571 95.3096 10.564 97.0129 10.564C99.0439 10.564 100.731 10.9899 102.074 11.8416C103.45 12.6605 104.432 13.8561 105.022 15.4284C105.743 14.0199 106.84 12.857 108.314 11.9398C109.788 11.0226 111.491 10.564 113.424 10.564C115.226 10.564 116.814 10.9244 118.19 11.645C119.566 12.3657 120.614 13.3811 121.335 14.6914C122.088 16.0017 122.465 17.5085 122.465 19.2118V36.4582H116.47V20.8333C116.47 19.2282 116.045 17.9834 115.193 17.099C114.341 16.1818 113.178 15.7232 111.704 15.7232C109.903 15.7232 108.494 16.4275 107.479 17.836C106.496 19.2446 106.005 21.1445 106.005 23.5357V36.4582H100.01V20.8333C100.01 19.2282 99.5843 17.9834 98.7327 17.099C97.9137 16.1818 96.7673 15.7232 95.2932 15.7232C94.114 15.7232 93.0821 16.0508 92.1977 16.7059C91.346 17.3611 90.6909 18.2783 90.2323 19.4575C89.8065 20.6367 89.5935 21.9961 89.5935 23.5357V36.4582H83.5991V10.9571Z" fill="#0A0B0C"/>
<path d="M127.253 10.9571H133.247V14.9862C134.099 13.6104 135.245 12.5294 136.686 11.7433C138.128 10.9571 139.716 10.564 141.453 10.564C143.287 10.564 144.892 10.9407 146.268 11.6942C147.676 12.4476 148.774 13.5121 149.56 14.8879C150.346 16.2637 150.739 17.8688 150.739 19.7032V36.4582H144.695V21.1281C144.695 19.5885 144.237 18.3438 143.32 17.3938C142.435 16.4111 141.24 15.9198 139.733 15.9198C138.39 15.9198 137.227 16.2965 136.244 17.0499C135.294 17.7705 134.557 18.8351 134.033 20.2437C133.509 21.6194 133.247 23.29 133.247 25.2554V36.4582H127.253V10.9571Z" fill="#0A0B0C"/>
<path d="M155.503 10.9571H161.498V36.4582H155.503V10.9571ZM155.503 31.3973H161.498V36.4582H155.503V31.3973ZM155.503 10.9571H159.532V16.018H155.503V10.9571ZM158.451 7.51767C157.436 7.51767 156.551 7.15734 155.798 6.4367C155.077 5.68329 154.717 4.79886 154.717 3.7834C154.717 2.76794 155.077 1.88351 155.798 1.13011C156.551 0.376702 157.436 0 158.451 0C159.467 0 160.351 0.376702 161.105 1.13011C161.858 1.88351 162.235 2.76794 162.235 3.7834C162.235 4.79886 161.858 5.68329 161.105 6.4367C160.351 7.15734 159.467 7.51767 158.451 7.51767Z" fill="#0A0B0C"/>
<path d="M166.872 10.9571H171.638V14.4457C172.326 13.332 173.407 12.4148 174.881 11.6942C176.388 10.9407 177.993 10.564 179.696 10.564C182.186 10.564 184.331 11.1373 186.133 12.2838C187.967 13.3975 189.359 14.9534 190.309 16.9516C191.259 18.917 191.734 21.1608 191.734 23.6831C191.734 26.2054 191.243 28.4656 190.26 30.4638C189.277 32.4619 187.853 34.0342 185.985 35.1807C184.151 36.2944 181.989 36.8513 179.5 36.8513C177.927 36.8513 176.42 36.5074 174.979 35.8195C173.571 35.1316 172.457 34.2472 171.638 33.1662V45.6465H166.872V10.9571ZM179.057 32.6748C180.597 32.6748 181.956 32.2981 183.136 31.5447C184.315 30.7913 185.216 29.7431 185.838 28.4001C186.493 27.0571 186.821 25.4847 186.821 23.6831C186.821 21.9142 186.493 20.3583 185.838 19.0153C185.216 17.6723 184.315 16.624 183.136 15.8706C181.956 15.1172 180.597 14.7405 179.057 14.7405C177.518 14.7405 176.158 15.1172 174.979 15.8706C173.8 16.624 172.883 17.6723 172.228 19.0153C171.605 20.3583 171.294 21.9142 171.294 23.6831C171.294 25.4847 171.605 27.0571 172.228 28.4001C172.883 29.7431 173.8 30.7913 174.979 31.5447C176.158 32.2981 177.518 32.6748 179.057 32.6748Z" fill="#0A0B0C"/>
<path d="M206.553 36.8513C204.03 36.8513 201.852 36.2944 200.018 35.1807C198.183 34.0342 196.791 32.4619 195.841 30.4638C194.891 28.4656 194.416 26.2054 194.416 23.6831C194.416 21.1608 194.891 18.917 195.841 16.9516C196.824 14.9534 198.216 13.3975 200.018 12.2838C201.852 11.1373 204.014 10.564 206.504 10.564C208.109 10.564 209.648 10.9244 211.122 11.645C212.596 12.3657 213.726 13.2829 214.513 14.3966V10.9571H219.279V36.4582H214.513V32.9696C213.923 34.0506 212.891 34.9678 211.417 35.7212C209.943 36.4746 208.322 36.8513 206.553 36.8513ZM207.093 32.6748C208.633 32.6748 209.992 32.2981 211.171 31.5447C212.351 30.7913 213.251 29.7431 213.874 28.4001C214.529 27.0571 214.857 25.4847 214.857 23.6831C214.857 21.9142 214.529 20.3583 213.874 19.0153C213.251 17.6723 212.351 16.624 211.171 15.8706C209.992 15.1172 208.633 14.7405 207.093 14.7405C205.554 14.7405 204.194 15.1172 203.015 15.8706C201.836 16.624 200.919 17.6723 200.263 19.0153C199.608 20.3583 199.281 21.9142 199.281 23.6831C199.281 25.452 199.608 27.0243 200.263 28.4001C200.919 29.7431 201.836 30.7913 203.015 31.5447C204.194 32.2981 205.554 32.6748 207.093 32.6748Z" fill="#0A0B0C"/>
<path d="M224.957 10.9571H229.723V36.4582H224.957V10.9571ZM224.957 32.38H229.723V36.4582H224.957V32.38ZM224.957 10.9571H228.101V15.0353H224.957V10.9571ZM227.315 6.87891C226.431 6.87891 225.661 6.56772 225.006 5.94534C224.384 5.29021 224.072 4.52043 224.072 3.636C224.072 2.75156 224.384 1.98178 225.006 1.32665C225.661 0.671514 226.431 0.343947 227.315 0.343947C228.2 0.343947 228.97 0.671514 229.625 1.32665C230.28 1.98178 230.607 2.75156 230.607 3.636C230.607 4.52043 230.28 5.29021 229.625 5.94534C228.97 6.56772 228.2 6.87891 227.315 6.87891Z" fill="#0A0B0C"/>
<path d="M250 15.281C249.247 15.0845 248.395 14.9862 247.445 14.9862C246.102 14.9862 244.874 15.4284 243.76 16.3128C242.646 17.1645 241.762 18.4912 241.107 20.2928C240.451 22.0617 240.124 24.24 240.124 26.8278V36.4582H235.358V10.9571H240.124V15.9689C240.713 14.4293 241.762 13.1518 243.268 12.1364C244.775 11.0882 246.364 10.564 248.035 10.564C248.886 10.564 249.541 10.6296 250 10.7606V15.281ZM235.358 32.38H240.124V36.4582H235.358V32.38ZM235.358 10.9571H237.323V15.0353H235.358V10.9571Z" fill="#0A0B0C"/>
</svg>
