<svg width="1200" height="675" viewBox="0 0 1200 675" fill="none" xmlns="http://www.w3.org/2000/svg">
<g clip-path="url(#clip0_471_255)">
<rect width="1200" height="675" fill="white"/>
<path d="M1319.84 532.201C1360.79 544.589 1385.91 586.656 1373.44 627.583C1361.01 668.363 1317.17 688.628 1276.36 676.3L893.632 560.696C787.689 528.771 681.145 608.284 681.145 719.421V1115.32C681.145 1161.59 646.084 1201.01 599.813 1201.01C560.662 1201.01 531.084 1168.01 531.084 1128.86V719.421C531.084 608.284 424.242 528.771 318.298 560.696L-75.4867 679.683C-116.212 691.989 -159.967 672 -172.642 631.388C-185.462 590.312 -160.283 547.833 -119.091 535.394L264.876 419.441C372.92 386.914 417.339 257.706 352.212 165.242L118.355 -166.717C93.7292 -201.673 99.4153 -249.973 134.343 -274.639C169.222 -299.27 216.715 -288.468 241.284 -253.545L471.06 73.0804C537.087 166.447 675.143 166.447 740.869 73.0804L966.551 -247.364C991.466 -282.741 1039.72 -293.41 1074.67 -267.902C1108.72 -243.055 1113.9 -195.462 1089.62 -161.007L859.718 165.242C794.892 257.706 839.009 386.914 947.053 419.441L1319.84 532.201Z" fill="url(#paint0_linear_471_255)" fill-opacity="0.05"/>
<circle cx="600.5" cy="337.5" r="322.5" fill="white"/>
<circle cx="600.5" cy="337.5" r="320.595" stroke="black" stroke-opacity="0.06" stroke-width="3.81093"/>
<mask id="mask0_471_255" style="mask-type:alpha" maskUnits="userSpaceOnUse" x="278" y="15" width="645" height="645">
<circle cx="600.5" cy="337.5" r="322.5" fill="white"/>
<circle cx="600.5" cy="337.5" r="320.595" stroke="black" stroke-opacity="0.06" stroke-width="3.81093"/>
</mask>
<g mask="url(#mask0_471_255)">
<rect x="572.235" y="341.272" width="57.2198" height="17.2739" fill="url(#paint1_linear_471_255)"/>
<circle cx="740.226" cy="349.908" r="129.554" fill="#E4FFED"/>
<g filter="url(#filter0_d_471_255)">
<mask id="path-8-inside-1_471_255" fill="white">
<path d="M844.422 349.909C849.321 349.909 851.771 349.909 853.782 351.026C855.42 351.937 856.981 353.697 857.689 355.433C858.558 357.563 858.296 359.734 857.773 364.077C854.618 390.243 842.789 414.762 823.961 433.59C801.768 455.784 771.667 468.252 740.28 468.252C708.893 468.252 678.792 455.784 656.599 433.59C637.771 414.762 625.942 390.243 622.787 364.077C622.264 359.734 622.002 357.563 622.871 355.433C623.579 353.697 625.139 351.937 626.778 351.026C628.789 349.909 631.238 349.909 636.138 349.909L740.28 349.909H844.422Z"/>
</mask>
<path d="M844.422 349.909C849.321 349.909 851.771 349.909 853.782 351.026C855.42 351.937 856.981 353.697 857.689 355.433C858.558 357.563 858.296 359.734 857.773 364.077C854.618 390.243 842.789 414.762 823.961 433.59C801.768 455.784 771.667 468.252 740.28 468.252C708.893 468.252 678.792 455.784 656.599 433.59C637.771 414.762 625.942 390.243 622.787 364.077C622.264 359.734 622.002 357.563 622.871 355.433C623.579 353.697 625.139 351.937 626.778 351.026C628.789 349.909 631.238 349.909 636.138 349.909L740.28 349.909H844.422Z" fill="#DFF8FF"/>
<path d="M844.422 349.909C849.321 349.909 851.771 349.909 853.782 351.026C855.42 351.937 856.981 353.697 857.689 355.433C858.558 357.563 858.296 359.734 857.773 364.077C854.618 390.243 842.789 414.762 823.961 433.59C801.768 455.784 771.667 468.252 740.28 468.252C708.893 468.252 678.792 455.784 656.599 433.59C637.771 414.762 625.942 390.243 622.787 364.077C622.264 359.734 622.002 357.563 622.871 355.433C623.579 353.697 625.139 351.937 626.778 351.026C628.789 349.909 631.238 349.909 636.138 349.909L740.28 349.909H844.422Z" stroke="white" stroke-width="12.5159" stroke-linejoin="round" mask="url(#path-8-inside-1_471_255)"/>
</g>
<circle cx="459.955" cy="349.909" r="129.554" fill="#FFF0E6"/>
<path d="M446.481 283.2L430.058 298.468C428.858 299.578 428.168 301.333 428.168 303.252C428.168 305.172 428.858 306.912 430.058 308.037L446.481 323.29C448.386 325.045 450.995 324.61 452.435 322.315C455.75 316.991 457.58 310.227 457.58 303.252C457.58 296.278 455.75 289.499 452.45 284.19C450.995 281.88 448.386 281.445 446.496 283.215L446.481 283.2Z" fill="#E07655"/>
<path d="M473.118 283.2L489.541 298.468C490.741 299.578 491.431 301.333 491.431 303.252C491.431 305.172 490.741 306.912 489.541 308.037L473.118 323.29C471.213 325.045 468.603 324.61 467.163 322.315C463.849 316.991 462.019 310.227 462.019 303.252C462.019 296.278 463.849 289.499 467.148 284.19C468.603 281.88 471.213 281.445 473.103 283.215L473.118 283.2Z" fill="#E07655"/>
<path d="M430.574 368.83C424.563 368.83 420.935 365.513 420.797 360.711H424.805C425.012 363.579 427.223 365.479 430.574 365.479C433.511 365.479 435.549 364.235 435.549 361.92C435.549 359.364 433.061 358.777 429.572 358.155C425.219 357.395 421.384 356.082 421.384 351.314C421.384 347.099 424.839 344.232 429.987 344.232C435.514 344.232 438.969 347.238 439.142 351.694H435.169C434.858 349.241 432.958 347.583 429.952 347.583C427.223 347.583 425.357 348.723 425.357 351.003C425.357 353.491 427.845 354.009 431.3 354.631C435.653 355.425 439.522 356.738 439.522 361.506C439.522 365.824 435.894 368.83 430.574 368.83ZM442.022 375.532V350.934H445.304L445.684 353.594C446.859 352.04 448.69 350.727 451.488 350.727C456.325 350.727 459.884 354.113 459.884 359.778C459.884 365.237 456.325 368.83 451.523 368.83C448.759 368.83 446.859 367.724 445.788 366.101V375.532H442.022ZM450.867 365.652C453.976 365.652 456.049 363.302 456.049 359.778C456.049 356.289 453.976 353.905 450.867 353.905C447.792 353.905 445.719 356.289 445.719 359.744C445.719 363.268 447.792 365.652 450.867 365.652ZM470.573 368.83C465.184 368.83 461.556 365.202 461.556 359.778C461.556 354.389 465.184 350.727 470.573 350.727C475.963 350.727 479.59 354.389 479.59 359.778C479.59 365.202 475.963 368.83 470.573 368.83ZM470.573 365.652C473.717 365.652 475.79 363.199 475.79 359.778C475.79 356.358 473.717 353.905 470.573 353.905C467.43 353.905 465.391 356.358 465.391 359.778C465.391 363.199 467.43 365.652 470.573 365.652ZM487.882 368.623C484.496 368.623 483.08 367.033 483.08 363.821V354.216H480.005V350.934H483.08V345.994H486.811V350.934H491.371V354.216H486.811V363.441C486.811 364.822 487.329 365.341 488.746 365.341H491.371V368.623H487.882ZM410.792 408.623V387.963H403.33V384.439H422.227V387.963H414.765V408.623H410.792ZM422.369 408.623V390.934H425.651L426.031 393.594C426.93 392.143 428.311 390.934 431.283 390.934H432.146V394.424H430.522C427.171 394.424 426.135 397.015 426.135 399.744V408.623H422.369ZM439.121 408.83C435.252 408.83 432.557 406.93 432.557 403.648C432.557 400.02 435.183 397.982 440.123 397.982H444.58V396.911C444.58 394.873 443.163 393.733 440.71 393.733C438.43 393.733 437.014 394.734 436.737 396.324H433.075C433.455 392.869 436.426 390.727 440.883 390.727C445.582 390.727 448.276 392.973 448.276 397.153V404.235C448.276 405.133 448.622 405.375 449.416 405.375H450.176V408.623H448.207C445.892 408.623 444.96 407.552 444.96 405.928V405.859C443.854 407.586 442.023 408.83 439.121 408.83ZM439.639 405.928C442.749 405.928 444.58 404.097 444.58 401.368V400.746H439.95C437.636 400.746 436.357 401.609 436.357 403.371C436.357 404.995 437.601 405.928 439.639 405.928ZM459.087 408.83C454.285 408.83 450.726 405.444 450.726 399.778C450.726 394.32 454.285 390.727 459.087 390.727C461.851 390.727 463.751 391.832 464.822 393.422V384.439H468.553V408.623H465.306L464.891 405.928C463.716 407.517 461.885 408.83 459.087 408.83ZM459.709 405.652C462.818 405.652 464.857 403.302 464.857 399.848C464.857 396.289 462.818 393.905 459.709 393.905C456.6 393.905 454.561 396.289 454.561 399.778C454.561 403.302 456.6 405.652 459.709 405.652ZM471.781 408.623V390.934H475.546V408.623H471.781ZM473.646 388.343C472.437 388.343 471.47 387.41 471.47 386.167C471.47 384.923 472.437 384.025 473.646 384.025C474.89 384.025 475.823 384.923 475.823 386.167C475.823 387.41 474.89 388.343 473.646 388.343ZM478.715 408.623V390.934H481.997L482.377 393.249C483.448 391.902 485.175 390.727 488.042 390.727C491.981 390.727 495.159 392.869 495.159 398.777V408.623H491.428V399.053C491.428 395.702 489.977 393.94 487.213 393.94C484.069 393.94 482.48 395.909 482.48 399.295V408.623H478.715ZM506.18 415.74C501.413 415.74 498.2 413.528 497.854 409.625H501.655C502.138 411.594 503.831 412.699 506.457 412.699C509.739 412.699 511.535 411.11 511.535 407.759V405.893C510.361 407.448 508.53 408.692 505.835 408.692C500.929 408.692 497.405 405.306 497.405 399.744C497.405 394.424 500.964 390.727 505.766 390.727C508.495 390.727 510.43 391.832 511.57 393.525L511.984 390.934H515.232V407.897C515.232 412.872 512.295 415.74 506.18 415.74ZM506.388 405.548C509.462 405.548 511.535 403.199 511.535 399.778C511.535 396.289 509.462 393.905 506.388 393.905C503.278 393.905 501.24 396.255 501.24 399.744C501.24 403.199 503.278 405.548 506.388 405.548Z" fill="#E07655"/>
<path d="M688.384 433.995V415.322H691.452V431.274H699.482V433.995H688.384ZM706.833 434.155C702.538 434.155 699.844 431.381 699.844 427.193C699.844 422.978 702.538 420.177 706.566 420.177C710.488 420.177 713.182 422.711 713.182 426.819V427.806H702.858V427.966C702.858 430.261 704.405 431.808 706.673 431.808C708.46 431.808 709.767 430.928 710.167 429.434H713.048C712.568 432.101 710.221 434.155 706.833 434.155ZM702.938 425.672H710.247C710.007 423.645 708.62 422.498 706.593 422.498C704.779 422.498 703.178 423.672 702.938 425.672ZM718.115 433.995L713.073 420.337H716.168L719.929 430.901L723.637 420.337H726.678L721.636 433.995H718.115ZM733.536 434.155C729.242 434.155 726.547 431.381 726.547 427.193C726.547 422.978 729.242 420.177 733.27 420.177C737.191 420.177 739.885 422.711 739.885 426.819V427.806H729.562V427.966C729.562 430.261 731.109 431.808 733.376 431.808C735.164 431.808 736.471 430.928 736.871 429.434H739.752C739.272 432.101 736.924 434.155 733.536 434.155ZM729.642 425.672H736.951C736.711 423.645 735.324 422.498 733.296 422.498C731.482 422.498 729.882 423.672 729.642 425.672ZM741.762 433.995V420.337H744.297L744.59 422.391C745.284 421.271 746.351 420.337 748.645 420.337H749.312V423.031H748.058C745.47 423.031 744.67 425.032 744.67 427.139V433.995H741.762ZM754.698 434.155C751.71 434.155 749.629 432.688 749.629 430.154C749.629 427.353 751.656 425.779 755.471 425.779H758.912V424.952C758.912 423.378 757.819 422.498 755.925 422.498C754.164 422.498 753.07 423.271 752.857 424.499H750.029C750.323 421.831 752.617 420.177 756.058 420.177C759.686 420.177 761.767 421.911 761.767 425.139V430.607C761.767 431.301 762.034 431.488 762.647 431.488H763.234V433.995H761.714C759.926 433.995 759.206 433.168 759.206 431.915V431.861C758.352 433.195 756.938 434.155 754.698 434.155ZM755.098 431.915C757.499 431.915 758.912 430.501 758.912 428.393V427.913H755.338C753.55 427.913 752.563 428.58 752.563 429.941C752.563 431.194 753.524 431.915 755.098 431.915ZM770.539 439.491C766.857 439.491 764.377 437.783 764.11 434.769H767.044C767.418 436.29 768.725 437.143 770.752 437.143C773.287 437.143 774.674 435.916 774.674 433.328V431.888C773.767 433.088 772.353 434.049 770.272 434.049C766.484 434.049 763.763 431.434 763.763 427.139C763.763 423.031 766.511 420.177 770.219 420.177C772.326 420.177 773.82 421.031 774.7 422.338L775.021 420.337H777.528V433.435C777.528 437.277 775.261 439.491 770.539 439.491ZM770.699 431.621C773.073 431.621 774.674 429.807 774.674 427.166C774.674 424.472 773.073 422.631 770.699 422.631C768.298 422.631 766.724 424.445 766.724 427.139C766.724 429.807 768.298 431.621 770.699 431.621ZM786.423 434.155C782.128 434.155 779.433 431.381 779.433 427.193C779.433 422.978 782.128 420.177 786.156 420.177C790.077 420.177 792.772 422.711 792.772 426.819V427.806H782.448V427.966C782.448 430.261 783.995 431.808 786.263 431.808C788.05 431.808 789.357 430.928 789.757 429.434H792.638C792.158 432.101 789.811 434.155 786.423 434.155ZM782.528 425.672H789.837C789.597 423.645 788.21 422.498 786.183 422.498C784.369 422.498 782.768 423.672 782.528 425.672Z" fill="#5179FB"/>
<path d="M754.109 381.368L743.251 369.668C742.461 368.814 741.213 368.322 739.848 368.322C738.483 368.322 737.246 368.814 736.446 369.668L725.598 381.368C724.35 382.725 724.659 384.584 726.291 385.61C730.078 387.972 734.888 389.275 739.848 389.275C744.808 389.275 749.629 387.972 753.405 385.621C755.048 384.584 755.357 382.725 754.098 381.379L754.109 381.368Z" fill="#5179FB"/>
<path d="M739.848 406.02C743.577 406.02 746.6 402.991 746.6 399.256C746.6 395.521 743.577 392.492 739.848 392.492C736.119 392.492 733.096 395.521 733.096 399.256C733.096 402.991 736.119 406.02 739.848 406.02Z" fill="#5179FB"/>
<path d="M689.041 321.436V300.095H692.547V318.326H701.724V321.436H689.041ZM710.125 321.619C705.216 321.619 702.137 318.448 702.137 313.662C702.137 308.845 705.216 305.644 709.82 305.644C714.302 305.644 717.381 308.54 717.381 313.235V314.363H705.582V314.546C705.582 317.168 707.351 318.936 709.942 318.936C711.985 318.936 713.479 317.93 713.936 316.223H717.229C716.68 319.272 713.997 321.619 710.125 321.619ZM705.674 311.924H714.027C713.753 309.607 712.168 308.296 709.851 308.296C707.777 308.296 705.948 309.638 705.674 311.924ZM719.526 321.436V305.827H722.422L722.758 307.869C723.703 306.68 725.227 305.644 727.758 305.644C731.233 305.644 734.038 307.534 734.038 312.747V321.436H730.745V312.991C730.745 310.034 729.465 308.479 727.026 308.479C724.252 308.479 722.849 310.217 722.849 313.205V321.436H719.526ZM743.398 321.619C739.16 321.619 736.02 318.631 736.02 313.631C736.02 308.814 739.16 305.644 743.398 305.644C745.837 305.644 747.514 306.619 748.459 308.022V300.095H751.752V321.436H748.886L748.52 319.058C747.483 320.461 745.867 321.619 743.398 321.619ZM743.947 318.814C746.691 318.814 748.489 316.741 748.489 313.692C748.489 310.552 746.691 308.449 743.947 308.449C741.203 308.449 739.404 310.552 739.404 313.631C739.404 316.741 741.203 318.814 743.947 318.814ZM754.6 321.436V305.827H757.923V321.436H754.6ZM756.246 303.54C755.179 303.54 754.325 302.717 754.325 301.619C754.325 300.522 755.179 299.729 756.246 299.729C757.344 299.729 758.167 300.522 758.167 301.619C758.167 302.717 757.344 303.54 756.246 303.54ZM760.719 321.436V305.827H763.615L763.95 307.869C764.895 306.68 766.42 305.644 768.95 305.644C772.426 305.644 775.231 307.534 775.231 312.747V321.436H771.938V312.991C771.938 310.034 770.658 308.479 768.219 308.479C765.444 308.479 764.042 310.217 764.042 313.205V321.436H760.719ZM784.956 327.717C780.749 327.717 777.914 325.765 777.609 322.32H780.963C781.389 324.058 782.883 325.034 785.2 325.034C788.097 325.034 789.682 323.631 789.682 320.674V319.028C788.645 320.4 787.03 321.497 784.652 321.497C780.322 321.497 777.213 318.509 777.213 313.601C777.213 308.906 780.353 305.644 784.591 305.644C786.999 305.644 788.706 306.619 789.712 308.113L790.078 305.827H792.944V320.796C792.944 325.186 790.353 327.717 784.956 327.717ZM785.139 318.723C787.853 318.723 789.682 316.65 789.682 313.631C789.682 310.552 787.853 308.449 785.139 308.449C782.395 308.449 780.597 310.522 780.597 313.601C780.597 316.65 782.395 318.723 785.139 318.723Z" fill="#2CA868"/>
<path d="M758.674 276.626L744.678 261.513C743.661 260.409 742.052 259.774 740.293 259.774C738.533 259.774 736.938 260.409 735.907 261.513L721.925 276.626C720.316 278.379 720.715 280.78 722.818 282.105C727.699 285.155 733.9 286.839 740.293 286.839C746.686 286.839 752.9 285.155 757.767 282.119C759.884 280.78 760.283 278.379 758.661 276.64L758.674 276.626Z" fill="#2CA868"/>
<path d="M758.674 251.815L744.678 266.928C743.661 268.032 742.052 268.667 740.293 268.667C738.533 268.667 736.938 268.032 735.907 266.928L721.925 251.815C720.316 250.062 720.715 247.661 722.818 246.336C727.699 243.286 733.9 241.602 740.293 241.602C746.686 241.602 752.9 243.286 757.767 246.322C759.884 247.661 760.283 250.062 758.661 251.801L758.674 251.815Z" fill="#2CA868"/>
<path d="M534.687 139.149C534.184 137.64 533.498 136.291 532.629 135.102C531.76 133.913 530.731 132.907 529.542 132.083C528.353 131.26 527.05 130.643 525.632 130.231C524.214 129.774 522.682 129.545 521.036 129.545C517.926 129.545 515.16 130.277 512.736 131.74C510.312 133.204 508.391 135.239 506.974 137.845C505.602 140.452 504.916 143.493 504.916 146.969C504.916 150.444 505.533 153.508 506.768 156.161C508.048 158.767 509.923 160.825 512.393 162.335C514.862 163.798 517.858 164.53 521.379 164.53C523.574 164.53 525.564 164.095 527.347 163.226C529.176 162.357 530.754 161.214 532.08 159.796C533.406 158.379 534.435 156.847 535.167 155.2C535.945 153.508 536.402 151.885 536.539 150.33H519.458V143.951H545.045V170.841H537.911V157.601L538.597 156.915C538.597 157.647 538.368 158.607 537.911 159.796C537.454 160.985 536.768 162.243 535.853 163.569C534.984 164.895 533.841 166.153 532.423 167.342C531.006 168.485 529.336 169.446 527.416 170.223C525.541 170.955 523.391 171.321 520.968 171.321C517.721 171.321 514.634 170.726 511.707 169.537C508.826 168.348 506.265 166.679 504.024 164.53C501.829 162.335 500.091 159.751 498.811 156.778C497.53 153.806 496.89 150.536 496.89 146.969C496.89 143.402 497.507 140.132 498.742 137.16C500.023 134.187 501.783 131.626 504.024 129.477C506.265 127.282 508.849 125.612 511.776 124.469C514.748 123.28 517.904 122.686 521.242 122.686C526.41 122.686 530.845 123.897 534.55 126.321C538.3 128.699 540.952 132.038 542.507 136.336L534.687 139.149ZM573.332 123.166L590.413 170.841H582.181L566.953 127.35H570.588L555.36 170.841H547.197L564.277 123.166H573.332ZM556.32 154.72H580.809L582.867 161.1H554.331L556.32 154.72ZM595.095 123.166H603.533L621.642 163.706H618.83L636.939 123.166H645.308V170.841H637.488V130.78L640.644 131.123L622.946 170.841H617.527L599.76 131.123L602.915 130.78V170.841H595.095V123.166ZM652.843 123.166H661.28L679.39 163.706H676.577L694.687 123.166H703.055V170.841H695.235V130.78L698.391 131.123L680.693 170.841H675.274L657.507 131.123L660.663 130.78V170.841H652.843V123.166Z" fill="#0A0B0C"/>
</g>
</g>
<defs>
<filter id="filter0_d_471_255" x="620.399" y="348.003" width="239.761" height="122.154" filterUnits="userSpaceOnUse" color-interpolation-filters="sRGB">
<feFlood flood-opacity="0" result="BackgroundImageFix"/>
<feColorMatrix in="SourceAlpha" type="matrix" values="0 0 0 0 0 0 0 0 0 0 0 0 0 0 0 0 0 0 127 0" result="hardAlpha"/>
<feOffset/>
<feGaussianBlur stdDeviation="0.952733"/>
<feComposite in2="hardAlpha" operator="out"/>
<feColorMatrix type="matrix" values="0 0 0 0 0 0 0 0 0 0 0 0 0 0 0 0 0 0 0.25 0"/>
<feBlend mode="normal" in2="BackgroundImageFix" result="effect1_dropShadow_471_255"/>
<feBlend mode="normal" in="SourceGraphic" in2="effect1_dropShadow_471_255" result="shape"/>
</filter>
<linearGradient id="paint0_linear_471_255" x1="185.735" y1="-150.05" x2="995.654" y2="689.604" gradientUnits="userSpaceOnUse">
<stop stop-color="#7E8380"/>
<stop offset="0.354136" stop-color="#5179FB"/>
<stop offset="0.649896" stop-color="#009954"/>
<stop offset="1" stop-color="#E07655"/>
</linearGradient>
<linearGradient id="paint1_linear_471_255" x1="588.996" y1="349.983" x2="611.143" y2="349.983" gradientUnits="userSpaceOnUse">
<stop stop-color="#FFF0E6"/>
<stop offset="1" stop-color="#E4FFED"/>
</linearGradient>
<clipPath id="clip0_471_255">
<rect width="1200" height="675" fill="white"/>
</clipPath>
</defs>
</svg>
