<svg width="1200" height="675" viewBox="0 0 1200 675" fill="none" xmlns="http://www.w3.org/2000/svg">
<rect width="1200" height="675" fill="white"/>
<circle cx="599.568" cy="264.365" r="118.739" fill="#090D0D"/>
<circle cx="599.568" cy="264.365" r="113.557" stroke="white" stroke-opacity="0.12" stroke-width="10.3627"/>
<mask id="mask0_473_896" style="mask-type:alpha" maskUnits="userSpaceOnUse" x="480" y="145" width="239" height="239">
<circle cx="599.568" cy="264.365" r="118.739" fill="#090D0D"/>
<circle cx="599.568" cy="264.365" r="115.72" stroke="white" stroke-opacity="0.12" stroke-width="6.03745"/>
</mask>
<g mask="url(#mask0_473_896)">
<g opacity="0.4" filter="url(#filter0_f_473_896)">
<path d="M518.611 127.557C549.934 116.049 580.41 146.462 569.193 178.01C599.435 192.142 599.599 235.292 569.452 249.636C580.904 281.113 550.639 311.739 519.246 300.467C505.183 330.857 462.243 331.022 447.969 300.727C416.646 312.236 386.17 281.822 397.387 250.274C367.145 236.143 366.981 192.992 397.128 178.648C385.676 147.171 415.941 116.545 447.334 127.817C461.397 97.4275 504.337 97.2621 518.611 127.557Z" fill="#5179FB"/>
<path d="M661.838 127.557C693.161 116.049 723.638 146.462 712.421 178.01C742.662 192.142 742.827 235.292 712.679 249.636C724.132 281.113 693.867 311.739 662.473 300.467C648.411 330.857 605.471 331.022 591.197 300.727C559.874 312.236 529.397 281.822 540.614 250.274C510.373 236.143 510.208 192.992 540.356 178.648C528.903 147.171 559.168 116.545 590.562 127.817C604.624 97.4276 647.564 97.2622 661.838 127.557Z" fill="#2CA868"/>
<path d="M805.06 127.557C836.383 116.049 866.86 146.462 855.642 178.01C885.884 192.142 886.048 235.292 855.901 249.636C867.353 281.113 837.089 311.739 805.695 300.467C791.632 330.857 748.693 331.022 734.418 300.727C703.095 312.236 672.619 281.822 683.836 250.274C653.595 236.143 653.43 192.992 683.577 178.648C672.125 147.171 702.39 116.545 733.784 127.817C747.846 97.4276 790.786 97.2622 805.06 127.557Z" fill="#E07655"/>
</g>
</g>
<path d="M624.162 234.372C625.587 234.803 626.461 236.266 626.027 237.689C625.595 239.108 624.07 239.813 622.65 239.384L609.338 235.363C605.653 234.252 601.947 237.018 601.947 240.884V254.654C601.947 256.264 600.727 257.635 599.118 257.635C597.756 257.635 596.727 256.487 596.727 255.125V240.884C596.727 237.018 593.011 234.252 589.326 235.363L575.629 239.502C574.212 239.93 572.69 239.234 572.249 237.822C571.804 236.393 572.679 234.915 574.112 234.483L587.468 230.45C591.226 229.318 592.771 224.824 590.506 221.608L582.371 210.061C581.515 208.845 581.712 207.165 582.927 206.307C584.141 205.451 585.793 205.826 586.647 207.041L594.639 218.402C596.936 221.65 601.738 221.65 604.024 218.402L611.874 207.256C612.741 206.026 614.419 205.654 615.635 206.542C616.819 207.406 616.999 209.061 616.155 210.26L608.158 221.608C605.903 224.824 607.438 229.318 611.196 230.45L624.162 234.372Z" fill="white"/>
<path d="M601.947 254.654V240.884C601.947 237.018 605.653 234.252 609.338 235.363L622.65 239.384C624.025 239.799 625.499 239.151 625.983 237.82L626.027 237.689C626.447 236.31 625.64 234.894 624.294 234.415L624.162 234.372L611.196 230.45C607.438 229.318 605.903 224.824 608.158 221.608L616.155 210.26C616.973 209.099 616.83 207.509 615.743 206.625L615.635 206.542C614.419 205.654 612.741 206.026 611.874 207.256L604.024 218.402C601.738 221.65 596.936 221.65 594.639 218.402L586.647 207.041C585.793 205.826 584.141 205.451 582.927 206.307L582.816 206.39C581.701 207.27 581.541 208.883 582.371 210.061L590.506 221.608C592.771 224.824 591.226 229.318 587.468 230.45L574.112 234.483L573.979 234.526C572.626 235.008 571.817 236.438 572.249 237.822C572.677 239.19 574.118 239.885 575.496 239.538L575.629 239.502L589.326 235.363C593.011 234.252 596.727 237.018 596.727 240.884V255.125L596.73 255.252C596.79 256.516 597.735 257.565 598.991 257.632L599.118 257.635C600.677 257.635 601.87 256.348 601.943 254.804L601.947 254.654ZM602.577 254.655C602.576 256.568 601.117 258.265 599.118 258.265C597.369 258.265 596.097 256.794 596.097 255.125V240.884C596.097 237.438 592.787 234.978 589.508 235.966L589.507 235.966L575.811 240.105C574.105 240.62 572.205 239.792 571.649 238.01C571.088 236.214 572.197 234.403 573.93 233.88L587.286 229.847C590.631 228.84 592.01 224.837 589.991 221.971L581.856 210.424C580.823 208.957 581.034 206.874 582.564 205.793C584.093 204.714 586.13 205.211 587.162 206.679L595.153 218.038C597.199 220.932 601.475 220.93 603.509 218.04L611.359 206.894C612.405 205.409 614.474 204.915 616.006 206.033C617.499 207.123 617.689 209.176 616.67 210.623L608.673 221.971C606.663 224.839 608.035 228.84 611.377 229.847L611.378 229.847L624.345 233.769C626.069 234.291 627.175 236.083 626.629 237.873C626.084 239.663 624.179 240.504 622.468 239.987L609.156 235.966C605.879 234.978 602.577 237.437 602.577 240.884V254.655Z" fill="white"/>
<path d="M559.135 289.647C558.831 288.735 558.417 287.92 557.891 287.201C557.366 286.483 556.745 285.875 556.026 285.378C555.308 284.88 554.52 284.507 553.664 284.258C552.807 283.982 551.881 283.844 550.886 283.844C549.007 283.844 547.335 284.286 545.871 285.17C544.406 286.055 543.246 287.284 542.389 288.859C541.56 290.435 541.145 292.272 541.145 294.372C541.145 296.473 541.518 298.324 542.265 299.927C543.038 301.502 544.171 302.745 545.664 303.657C547.156 304.542 548.966 304.984 551.094 304.984C552.42 304.984 553.622 304.721 554.7 304.196C555.805 303.671 556.758 302.98 557.56 302.124C558.361 301.267 558.983 300.341 559.425 299.346C559.895 298.324 560.171 297.343 560.254 296.404H549.933V292.549H565.394V308.797H561.083V300.797L561.498 300.383C561.498 300.825 561.36 301.405 561.083 302.124C560.807 302.842 560.392 303.602 559.84 304.403C559.315 305.205 558.624 305.965 557.767 306.683C556.91 307.374 555.902 307.954 554.741 308.424C553.608 308.866 552.309 309.087 550.845 309.087C548.883 309.087 547.018 308.728 545.249 308.01C543.508 307.291 541.961 306.283 540.607 304.984C539.28 303.657 538.23 302.096 537.456 300.3C536.683 298.504 536.296 296.528 536.296 294.372C536.296 292.217 536.669 290.241 537.415 288.445C538.189 286.649 539.253 285.101 540.607 283.803C541.961 282.476 543.522 281.467 545.29 280.777C547.087 280.058 548.993 279.699 551.011 279.699C554.133 279.699 556.814 280.431 559.052 281.896C561.318 283.333 562.921 285.35 563.86 287.948L559.135 289.647ZM582.487 279.989L592.808 308.797H587.834L578.632 282.518H580.829L571.627 308.797H566.694L577.015 279.989H582.487ZM572.207 299.056H587.005L588.249 302.911H571.005L572.207 299.056ZM595.638 279.989H600.736L611.679 304.486H609.98L620.923 279.989H625.98V308.797H621.254V284.59L623.161 284.797L612.467 308.797H609.192L598.456 284.797L600.363 284.59V308.797H595.638V279.989ZM630.532 279.989H635.631L646.574 304.486H644.874L655.817 279.989H660.874V308.797H656.149V284.59L658.056 284.797L647.361 308.797H644.087L633.351 284.797L635.258 284.59V308.797H630.532V279.989Z" fill="white"/>
<path d="M119 119.72C119 76.7964 153.796 42 196.72 42C239.643 42 274.44 76.7964 274.44 119.72C274.44 162.643 239.643 197.44 196.72 197.44C153.796 197.44 119 162.643 119 119.72Z" fill="#E4FFED"/>
<path opacity="0.4" d="M177.084 116.972C180.417 109.444 187.943 104.176 196.719 104.176C205.204 104.176 212.52 109.1 216.008 116.229C216.236 116.695 216.458 117.172 216.614 117.653C217.797 121.31 215.698 125.224 212.032 126.379C208.095 127.62 202.882 128.739 196.719 128.739C190.556 128.739 185.343 127.62 181.406 126.379C177.511 125.152 175.385 120.813 177.084 116.972Z" fill="#2CA868"/>
<path d="M196.719 99.5717C202.231 99.5717 206.698 95.1041 206.698 89.5929C206.698 84.0816 202.231 79.614 196.719 79.614C191.207 79.614 186.74 84.0816 186.74 89.5929C186.74 95.1041 191.207 99.5717 196.719 99.5717Z" fill="#2CA868"/>
<path d="M156.061 157.718V143.21H161.388C164.579 143.21 166.403 144.661 166.403 147.045C166.403 148.765 165.429 149.801 163.916 150.216C165.636 150.485 166.963 151.501 166.963 153.573C166.963 156.143 165.077 157.718 161.574 157.718H156.061ZM158.445 155.708H161.595C163.502 155.708 164.517 154.899 164.517 153.552C164.517 152.122 163.44 151.335 161.595 151.335H158.445V155.708ZM158.445 149.366H161.45C163.087 149.366 164.02 148.578 164.02 147.273C164.02 145.988 163.108 145.2 161.45 145.2H158.445V149.366ZM173.43 157.842C170.197 157.842 168.02 155.666 168.02 152.412C168.02 149.179 170.197 146.982 173.43 146.982C176.663 146.982 178.839 149.179 178.839 152.412C178.839 155.666 176.663 157.842 173.43 157.842ZM173.43 155.936C175.316 155.936 176.559 154.464 176.559 152.412C176.559 150.361 175.316 148.889 173.43 148.889C171.544 148.889 170.321 150.361 170.321 152.412C170.321 154.464 171.544 155.936 173.43 155.936ZM180.286 157.718V147.107H182.255L182.483 148.703C183.022 147.832 183.851 147.107 185.634 147.107H186.152V149.2H185.178C183.167 149.2 182.546 150.754 182.546 152.392V157.718H180.286ZM187.199 157.718V147.107H189.168L189.396 148.703C189.934 147.832 190.763 147.107 192.546 147.107H193.064V149.2H192.09C190.08 149.2 189.458 150.754 189.458 152.392V157.718H187.199ZM198.74 157.842C195.507 157.842 193.331 155.666 193.331 152.412C193.331 149.179 195.507 146.982 198.74 146.982C201.974 146.982 204.15 149.179 204.15 152.412C204.15 155.666 201.974 157.842 198.74 157.842ZM198.74 155.936C200.626 155.936 201.87 154.464 201.87 152.412C201.87 150.361 200.626 148.889 198.74 148.889C196.854 148.889 195.632 150.361 195.632 152.412C195.632 154.464 196.854 155.936 198.74 155.936ZM207.679 157.718L204.217 147.107H206.58L209.005 155.231L211.43 147.107H213.482L215.803 155.231L218.311 147.107H220.59L217.067 157.718H214.663L212.425 150.506L210.103 157.718H207.679ZM226.085 157.842C222.749 157.842 220.655 155.687 220.655 152.433C220.655 149.159 222.749 146.982 225.878 146.982C228.925 146.982 231.018 148.951 231.018 152.143V152.91H222.997V153.034C222.997 154.817 224.199 156.019 225.961 156.019C227.35 156.019 228.365 155.335 228.676 154.174H230.914C230.541 156.247 228.718 157.842 226.085 157.842ZM223.059 151.252H228.738C228.552 149.677 227.474 148.786 225.899 148.786C224.49 148.786 223.246 149.697 223.059 151.252ZM232.476 157.718V147.107H234.445L234.673 148.703C235.212 147.832 236.041 147.107 237.823 147.107H238.342V149.2H237.367C235.357 149.2 234.735 150.754 234.735 152.392V157.718H232.476Z" fill="black" fill-opacity="0.7"/>
<path d="M522.28 570.495C522.28 527.572 557.077 492.776 600 492.776C642.924 492.776 677.72 527.572 677.72 570.495C677.72 613.419 642.924 648.215 600 648.215C557.077 648.215 522.28 613.419 522.28 570.495Z" fill="#FFF0E6"/>
<path opacity="0.4" d="M580.366 555.837C583.698 548.309 591.224 543.041 600 543.041C608.485 543.041 615.801 547.965 619.289 555.095C619.517 555.561 619.74 556.037 619.896 556.519C621.078 560.176 618.979 564.09 615.314 565.244C611.376 566.485 606.163 567.605 600 567.605C593.837 567.605 588.624 566.485 584.687 565.244C580.793 564.017 578.666 559.679 580.366 555.837Z" fill="#E07655"/>
<path d="M600 538.437C605.512 538.437 609.979 533.969 609.979 528.458C609.979 522.947 605.512 518.479 600 518.479C594.488 518.479 590.021 522.947 590.021 528.458C590.021 533.969 594.488 538.437 600 538.437Z" fill="#E07655"/>
<path d="M582.412 596.708C578.806 596.708 576.629 594.718 576.546 591.837H578.951C579.075 593.557 580.401 594.697 582.412 594.697C584.173 594.697 585.396 593.951 585.396 592.563C585.396 591.029 583.904 590.677 581.811 590.304C579.199 589.848 576.899 589.06 576.899 586.2C576.899 583.672 578.971 581.951 582.059 581.951C585.375 581.951 587.448 583.754 587.552 586.428H585.168C584.982 584.956 583.842 583.962 582.039 583.962C580.401 583.962 579.282 584.646 579.282 586.013C579.282 587.506 580.774 587.817 582.847 588.19C585.458 588.666 587.78 589.454 587.78 592.314C587.78 594.905 585.603 596.708 582.412 596.708ZM589.28 600.728V585.972H591.248L591.476 587.568C592.181 586.635 593.28 585.848 594.958 585.848C597.86 585.848 599.995 587.879 599.995 591.278C599.995 594.552 597.86 596.708 594.979 596.708C593.321 596.708 592.181 596.045 591.539 595.07V600.728H589.28ZM594.585 594.801C596.451 594.801 597.694 593.392 597.694 591.278C597.694 589.184 596.451 587.754 594.585 587.754C592.741 587.754 591.497 589.184 591.497 591.257C591.497 593.371 592.741 594.801 594.585 594.801ZM606.407 596.708C603.174 596.708 600.998 594.532 600.998 591.278C600.998 588.045 603.174 585.848 606.407 585.848C609.641 585.848 611.817 588.045 611.817 591.278C611.817 594.532 609.641 596.708 606.407 596.708ZM606.407 594.801C608.293 594.801 609.537 593.329 609.537 591.278C609.537 589.226 608.293 587.754 606.407 587.754C604.521 587.754 603.299 589.226 603.299 591.278C603.299 593.329 604.521 594.801 606.407 594.801ZM616.791 596.583C614.76 596.583 613.91 595.63 613.91 593.703V587.941H612.066V585.972H613.91V583.008H616.149V585.972H618.884V587.941H616.149V593.475C616.149 594.304 616.459 594.614 617.309 594.614H618.884V596.583H616.791ZM575.407 620.583V608.19H570.93V606.076H582.267V608.19H577.791V620.583H575.407ZM582.352 620.583V609.972H584.321L584.549 611.568C585.088 610.697 585.917 609.972 587.7 609.972H588.218V612.065H587.244C585.233 612.065 584.611 613.62 584.611 615.257V620.583H582.352ZM592.402 620.708C590.081 620.708 588.464 619.568 588.464 617.599C588.464 615.423 590.039 614.2 593.003 614.2H595.677V613.557C595.677 612.335 594.827 611.651 593.355 611.651C591.987 611.651 591.138 612.252 590.972 613.205H588.775C589.003 611.133 590.785 609.848 593.459 609.848C596.278 609.848 597.894 611.195 597.894 613.703V617.951C597.894 618.49 598.101 618.635 598.578 618.635H599.034V620.583H597.853C596.464 620.583 595.904 619.941 595.904 618.967V618.925C595.241 619.962 594.143 620.708 592.402 620.708ZM592.713 618.967C594.578 618.967 595.677 617.868 595.677 616.231V615.858H592.899C591.511 615.858 590.744 616.376 590.744 617.433C590.744 618.407 591.49 618.967 592.713 618.967ZM604.38 620.708C601.499 620.708 599.364 618.677 599.364 615.278C599.364 612.003 601.499 609.848 604.38 609.848C606.038 609.848 607.177 610.511 607.82 611.464V606.076H610.058V620.583H608.11L607.861 618.967C607.157 619.92 606.058 620.708 604.38 620.708ZM604.753 618.801C606.618 618.801 607.841 617.392 607.841 615.319C607.841 613.184 606.618 611.754 604.753 611.754C602.887 611.754 601.665 613.184 601.665 615.278C601.665 617.392 602.887 618.801 604.753 618.801ZM616.969 620.708C613.632 620.708 611.538 618.552 611.538 615.298C611.538 612.024 613.632 609.848 616.761 609.848C619.808 609.848 621.901 611.817 621.901 615.008V615.775H613.88V615.899C613.88 617.682 615.083 618.884 616.844 618.884C618.233 618.884 619.248 618.2 619.559 617.039H621.798C621.424 619.112 619.601 620.708 616.969 620.708ZM613.943 614.117H619.621C619.435 612.542 618.357 611.651 616.782 611.651C615.373 611.651 614.129 612.563 613.943 614.117ZM623.359 620.583V609.972H625.328L625.556 611.568C626.095 610.697 626.924 609.972 628.707 609.972H629.225V612.065H628.251C626.24 612.065 625.618 613.62 625.618 615.257V620.583H623.359Z" fill="black" fill-opacity="0.7"/>
<path d="M119 406.42C119 363.497 153.796 328.7 196.72 328.7C239.643 328.7 274.44 363.497 274.44 406.42C274.44 449.344 239.643 484.14 196.72 484.14C153.796 484.14 119 449.344 119 406.42Z" fill="#DFF8FF"/>
<path opacity="0.4" d="M177.084 391.761C180.417 384.234 187.943 378.966 196.719 378.966C205.204 378.966 212.52 383.89 216.008 391.019C216.236 391.485 216.458 391.962 216.614 392.443C217.797 396.1 215.698 400.014 212.032 401.169C208.095 402.41 202.882 403.529 196.719 403.529C190.556 403.529 185.343 402.41 181.406 401.169C177.511 399.942 175.385 395.603 177.084 391.761Z" fill="#5179FB"/>
<path d="M196.719 374.362C202.231 374.362 206.698 369.894 206.698 364.383C206.698 358.872 202.231 354.404 196.719 354.404C191.207 354.404 186.74 358.872 186.74 364.383C186.74 369.894 191.207 374.362 196.719 374.362Z" fill="#5179FB"/>
<path d="M166.374 432.508V418H169.462L174.104 429.42L178.664 418H181.69V432.508H179.389V421.835L175.037 432.508H173.027L168.674 421.835V432.508H166.374ZM187.168 432.632C184.847 432.632 183.23 431.493 183.23 429.524C183.23 427.347 184.805 426.125 187.769 426.125H190.443V425.482C190.443 424.259 189.593 423.575 188.121 423.575C186.754 423.575 185.904 424.176 185.738 425.13H183.541C183.769 423.057 185.552 421.772 188.225 421.772C191.044 421.772 192.66 423.119 192.66 425.627V429.876C192.66 430.415 192.868 430.56 193.344 430.56H193.8V432.508H192.619C191.23 432.508 190.671 431.866 190.671 430.891V430.85C190.007 431.886 188.909 432.632 187.168 432.632ZM187.479 430.891C189.344 430.891 190.443 429.793 190.443 428.156V427.783H187.666C186.277 427.783 185.51 428.301 185.51 429.358C185.51 430.332 186.256 430.891 187.479 430.891ZM194.667 432.508V421.897H196.636L196.864 423.493C197.403 422.622 198.232 421.897 200.014 421.897H200.532V423.99H199.558C197.548 423.99 196.926 425.544 196.926 427.182V432.508H194.667ZM205.882 436.777C203.022 436.777 201.094 435.451 200.887 433.109H203.167C203.457 434.29 204.472 434.954 206.047 434.954C208.016 434.954 209.094 434 209.094 431.99V430.871C208.389 431.803 207.291 432.55 205.674 432.55C202.731 432.55 200.617 430.518 200.617 427.182C200.617 423.99 202.752 421.772 205.633 421.772C207.27 421.772 208.431 422.436 209.115 423.451L209.363 421.897H211.312V432.073C211.312 435.057 209.55 436.777 205.882 436.777ZM206.006 430.664C207.851 430.664 209.094 429.254 209.094 427.202C209.094 425.109 207.851 423.679 206.006 423.679C204.141 423.679 202.918 425.088 202.918 427.182C202.918 429.254 204.141 430.664 206.006 430.664ZM213.248 432.508V421.897H215.507V432.508H213.248ZM214.367 420.342C213.642 420.342 213.061 419.783 213.061 419.037C213.061 418.29 213.642 417.752 214.367 417.752C215.113 417.752 215.673 418.29 215.673 419.037C215.673 419.783 215.113 420.342 214.367 420.342ZM217.407 432.508V421.897H219.376L219.604 423.285C220.247 422.477 221.283 421.772 223.003 421.772C225.366 421.772 227.273 423.057 227.273 426.601V432.508H225.034V426.767C225.034 424.757 224.164 423.7 222.506 423.7C220.62 423.7 219.667 424.881 219.667 426.912V432.508H217.407ZM172.127 456.508V444.114H167.65V442H178.987V444.114H174.51V456.508H172.127ZM179.072 456.508V445.897H181.041L181.269 447.493C181.808 446.622 182.637 445.897 184.419 445.897H184.937V447.99H183.963C181.953 447.99 181.331 449.544 181.331 451.182V456.508H179.072ZM189.122 456.632C186.8 456.632 185.184 455.493 185.184 453.524C185.184 451.347 186.759 450.125 189.723 450.125H192.396V449.482C192.396 448.259 191.546 447.575 190.075 447.575C188.707 447.575 187.857 448.176 187.692 449.13H185.495C185.723 447.057 187.505 445.772 190.179 445.772C192.997 445.772 194.614 447.119 194.614 449.627V453.876C194.614 454.415 194.821 454.56 195.298 454.56H195.754V456.508H194.572C193.184 456.508 192.624 455.866 192.624 454.891V454.85C191.961 455.886 190.863 456.632 189.122 456.632ZM189.433 454.891C191.298 454.891 192.396 453.793 192.396 452.156V451.783H189.619C188.23 451.783 187.464 452.301 187.464 453.358C187.464 454.332 188.21 454.891 189.433 454.891ZM201.099 456.632C198.218 456.632 196.084 454.601 196.084 451.202C196.084 447.928 198.218 445.772 201.099 445.772C202.757 445.772 203.897 446.436 204.54 447.389V442H206.778V456.508H204.83L204.581 454.891C203.876 455.845 202.778 456.632 201.099 456.632ZM201.472 454.726C203.338 454.726 204.56 453.316 204.56 451.244C204.56 449.109 203.338 447.679 201.472 447.679C199.607 447.679 198.384 449.109 198.384 451.202C198.384 453.316 199.607 454.726 201.472 454.726ZM213.688 456.632C210.351 456.632 208.258 454.477 208.258 451.223C208.258 447.949 210.351 445.772 213.481 445.772C216.528 445.772 218.621 447.741 218.621 450.933V451.7H210.6V451.824C210.6 453.607 211.802 454.809 213.564 454.809C214.952 454.809 215.968 454.125 216.279 452.964H218.517C218.144 455.037 216.32 456.632 213.688 456.632ZM210.662 450.042H216.341C216.155 448.467 215.077 447.575 213.502 447.575C212.092 447.575 210.849 448.487 210.662 450.042ZM220.079 456.508V445.897H222.048L222.276 447.493C222.815 446.622 223.644 445.897 225.426 445.897H225.944V447.99H224.97C222.96 447.99 222.338 449.544 222.338 451.182V456.508H220.079Z" fill="black" fill-opacity="0.7"/>
<path d="M925.561 119.72C925.561 76.7963 960.357 41.9999 1003.28 41.9999C1046.2 41.9999 1081 76.7963 1081 119.72C1081 162.643 1046.2 197.44 1003.28 197.44C960.357 197.44 925.561 162.643 925.561 119.72Z" fill="#E4FFED"/>
<path opacity="0.4" d="M983.645 116.971C986.977 109.444 994.503 104.176 1003.28 104.176C1011.76 104.176 1019.08 109.1 1022.57 116.229C1022.8 116.695 1023.02 117.172 1023.17 117.653C1024.36 121.31 1022.26 125.224 1018.59 126.379C1014.66 127.62 1009.44 128.739 1003.28 128.739C997.117 128.739 991.904 127.62 987.966 126.379C984.072 125.152 981.945 120.813 983.645 116.971Z" fill="#2CA868"/>
<path d="M1003.28 99.5717C1008.79 99.5717 1013.26 95.104 1013.26 89.5928C1013.26 84.0816 1008.79 79.614 1003.28 79.614C997.768 79.614 993.301 84.0816 993.301 89.5928C993.301 95.104 997.768 99.5717 1003.28 99.5717Z" fill="#2CA868"/>
<path d="M993.337 157.718V143.21H995.72V155.604H1001.96V157.718H993.337ZM1003.26 157.718V143.21H1008.98C1012.01 143.21 1014 145.013 1014 147.832C1014 150.63 1012.01 152.454 1008.98 152.454H1005.65V157.718H1003.26ZM1005.65 150.381H1008.78C1010.48 150.381 1011.58 149.387 1011.58 147.832C1011.58 146.257 1010.5 145.283 1008.8 145.283H1005.65V150.381Z" fill="black" fill-opacity="0.7"/>
<path d="M925.561 406.42C925.561 363.497 960.357 328.7 1003.28 328.7C1046.2 328.7 1081 363.497 1081 406.42C1081 449.344 1046.2 484.14 1003.28 484.14C960.357 484.14 925.561 449.344 925.561 406.42Z" fill="#F5F5F5"/>
<path opacity="0.4" d="M983.645 403.672C986.977 396.144 994.503 390.876 1003.28 390.876C1011.76 390.876 1019.08 395.8 1022.57 402.93C1022.8 403.395 1023.02 403.872 1023.17 404.353C1024.36 408.011 1022.26 411.924 1018.59 413.079C1014.66 414.32 1009.44 415.439 1003.28 415.439C997.117 415.439 991.904 414.32 987.966 413.079C984.072 411.852 981.945 407.513 983.645 403.672Z" fill="#5E5E5E"/>
<path d="M1003.28 386.272C1008.79 386.272 1013.26 381.804 1013.26 376.293C1013.26 370.782 1008.79 366.314 1003.28 366.314C997.768 366.314 993.301 370.782 993.301 376.293C993.301 381.804 997.768 386.272 1003.28 386.272Z" fill="#5E5E5E"/>
<path d="M959.14 444.418V429.911H961.524V442.304H967.762V444.418H959.14ZM968.965 444.418V433.807H971.224V444.418H968.965ZM970.084 432.253C969.358 432.253 968.778 431.693 968.778 430.947C968.778 430.201 969.358 429.662 970.084 429.662C970.83 429.662 971.389 430.201 971.389 430.947C971.389 431.693 970.83 432.253 970.084 432.253ZM981.124 448.563V442.864C980.42 443.776 979.342 444.543 977.684 444.543C974.803 444.543 972.668 442.532 972.668 439.113C972.668 435.859 974.824 433.683 977.684 433.683C979.363 433.683 980.523 434.387 981.166 435.361L981.414 433.807H983.363V448.563H981.124ZM978.057 442.636C979.922 442.636 981.145 441.227 981.145 439.154C981.145 437.019 979.922 435.589 978.057 435.589C976.192 435.589 974.969 437.019 974.969 439.113C974.969 441.227 976.192 442.636 978.057 442.636ZM989.402 444.543C987.123 444.543 985.195 443.278 985.195 439.714V433.807H987.454V439.548C987.454 441.558 988.325 442.615 989.9 442.615C991.724 442.615 992.635 441.455 992.635 439.403V433.807H994.874V444.418H992.926L992.677 443.03C992.055 443.859 991.06 444.543 989.402 444.543ZM996.805 444.418V433.807H999.064V444.418H996.805ZM997.924 432.253C997.199 432.253 996.619 431.693 996.619 430.947C996.619 430.201 997.199 429.662 997.924 429.662C998.671 429.662 999.23 430.201 999.23 430.947C999.23 431.693 998.671 432.253 997.924 432.253ZM1005.52 444.543C1002.64 444.543 1000.51 442.512 1000.51 439.113C1000.51 435.838 1002.64 433.683 1005.52 433.683C1007.18 433.683 1008.32 434.346 1008.96 435.299V429.911H1011.2V444.418H1009.26L1009.01 442.802C1008.3 443.755 1007.2 444.543 1005.52 444.543ZM1005.9 442.636C1007.76 442.636 1008.99 441.227 1008.99 439.154C1008.99 437.019 1007.76 435.589 1005.9 435.589C1004.03 435.589 1002.81 437.019 1002.81 439.113C1002.81 441.227 1004.03 442.636 1005.9 442.636ZM1016.6 444.543C1014.28 444.543 1012.66 443.403 1012.66 441.434C1012.66 439.258 1014.24 438.035 1017.2 438.035H1019.88V437.392C1019.88 436.17 1019.03 435.486 1017.55 435.486C1016.19 435.486 1015.34 436.087 1015.17 437.04H1012.97C1013.2 434.968 1014.98 433.683 1017.66 433.683C1020.48 433.683 1022.09 435.03 1022.09 437.538V441.786C1022.09 442.325 1022.3 442.47 1022.78 442.47H1023.23V444.418H1022.05C1020.66 444.418 1020.1 443.776 1020.1 442.802V442.76C1019.44 443.797 1018.34 444.543 1016.6 444.543ZM1016.91 442.802C1018.78 442.802 1019.88 441.703 1019.88 440.066V439.693H1017.1C1015.71 439.693 1014.94 440.211 1014.94 441.268C1014.94 442.242 1015.69 442.802 1016.91 442.802ZM1027.57 444.418C1025.53 444.418 1024.68 443.465 1024.68 441.538V435.776H1022.84V433.807H1024.68V430.843H1026.92V433.807H1029.66V435.776H1026.92V441.31C1026.92 442.139 1027.23 442.449 1028.08 442.449H1029.66V444.418H1027.57ZM1035.66 444.543C1032.43 444.543 1030.25 442.367 1030.25 439.113C1030.25 435.88 1032.43 433.683 1035.66 433.683C1038.89 433.683 1041.07 435.88 1041.07 439.113C1041.07 442.367 1038.89 444.543 1035.66 444.543ZM1035.66 442.636C1037.55 442.636 1038.79 441.164 1038.79 439.113C1038.79 437.061 1037.55 435.589 1035.66 435.589C1033.78 435.589 1032.55 437.061 1032.55 439.113C1032.55 441.164 1033.78 442.636 1035.66 442.636ZM1042.52 444.418V433.807H1044.49L1044.72 435.403C1045.25 434.532 1046.08 433.807 1047.87 433.807H1048.38V435.9H1047.41C1045.4 435.9 1044.78 437.455 1044.78 439.092V444.418H1042.52Z" fill="#5E5E5E"/>
<path d="M302.516 130.266L452.307 162.223L302.516 130.266Z" fill="#9B9B9B"/>
<path d="M302.516 130.266L452.307 162.223" stroke="#BCBBBB" stroke-width="3.45422" stroke-linecap="round" stroke-linejoin="round"/>
<path d="M460.924 167.74C463.516 167.144 464.491 163.964 462.679 162.019L453.508 152.167C451.695 150.22 448.457 150.963 447.677 153.506L443.729 166.377C442.949 168.917 445.214 171.35 447.805 170.755L460.924 167.74Z" fill="#9B9B9B"/>
<path d="M296.454 125.268C293.953 126.172 293.369 129.447 295.403 131.16L305.699 139.832C307.732 141.545 310.857 140.414 311.325 137.798L313.688 124.544C314.155 121.926 311.612 119.786 309.111 120.69L296.454 125.268Z" fill="#9B9B9B"/>
<path d="M896.62 130.266L746.829 162.223L896.62 130.266Z" fill="#9B9B9B"/>
<path d="M896.62 130.266L746.829 162.223" stroke="#BCBBBB" stroke-width="3.45422" stroke-linecap="round" stroke-linejoin="round"/>
<path d="M738.213 167.74C735.62 167.144 734.646 163.965 736.458 162.019L745.629 152.167C747.442 150.22 750.68 150.963 751.459 153.506L755.408 166.377C756.187 168.917 753.923 171.35 751.331 170.755L738.213 167.74Z" fill="#9B9B9B"/>
<path d="M902.683 125.268C905.184 126.172 905.768 129.447 903.734 131.16L893.438 139.832C891.405 141.545 888.279 140.414 887.812 137.798L885.448 124.544C884.982 121.926 887.525 119.786 890.025 120.69L902.683 125.268Z" fill="#9B9B9B"/>
<path d="M301.159 387.839L446.861 340.619L301.159 387.839Z" fill="#9B9B9B"/>
<path d="M301.159 387.839L446.861 340.619" stroke="#BCBBBB" stroke-width="3.45422" stroke-linecap="round" stroke-linejoin="round"/>
<path d="M457.082 341.089C459.029 339.276 458.283 336.036 455.741 335.257L442.873 331.31C440.329 330.531 437.897 332.793 438.493 335.385L441.509 348.506C442.104 351.096 445.282 352.07 447.229 350.259L457.082 341.089Z" fill="#9B9B9B"/>
<path d="M293.41 386.543C291.696 388.576 292.828 391.704 295.446 392.17L308.698 394.533C311.316 394.999 313.457 392.457 312.554 389.958L307.974 377.298C307.069 374.797 303.797 374.216 302.083 376.249L293.41 386.543Z" fill="#9B9B9B"/>
<path d="M896.753 374.022L751.051 326.802L896.753 374.022Z" fill="#9B9B9B"/>
<path d="M896.753 374.022L751.051 326.802" stroke="#BCBBBB" stroke-width="3.45422" stroke-linecap="round" stroke-linejoin="round"/>
<path d="M740.83 327.272C738.883 325.459 739.629 322.219 742.171 321.44L755.039 317.493C757.583 316.714 760.015 318.976 759.419 321.568L756.403 334.689C755.808 337.279 752.631 338.253 750.684 336.442L740.83 327.272Z" fill="#9B9B9B"/>
<path d="M904.502 372.726C906.216 374.759 905.084 377.887 902.466 378.353L889.214 380.716C886.596 381.182 884.455 378.641 885.358 376.141L889.938 363.481C890.843 360.98 894.115 360.399 895.829 362.432L904.502 372.726Z" fill="#9B9B9B"/>
<path d="M601.161 468.209C599.79 470.489 596.466 470.43 595.177 468.105L588.653 456.331C587.364 454.004 589.075 451.156 591.734 451.203L605.195 451.439C607.852 451.485 609.463 454.392 608.094 456.671L601.161 468.209Z" fill="#9B9B9B"/>
<path d="M601.16 408.202C599.789 405.921 596.465 405.981 595.176 408.306L588.652 420.079C587.363 422.407 589.074 425.255 591.733 425.208L605.194 424.972C607.851 424.926 609.462 422.019 608.093 419.739L601.16 408.202Z" fill="#9B9B9B"/>
<rect x="596.779" y="424.555" width="3.45422" height="30.2244" fill="#9B9B9B"/>
<defs>
<filter id="filter0_f_473_896" x="263.413" y="-6.26794" width="726.203" height="440.82" filterUnits="userSpaceOnUse" color-interpolation-filters="sRGB">
<feFlood flood-opacity="0" result="BackgroundImageFix"/>
<feBlend mode="normal" in="SourceGraphic" in2="BackgroundImageFix" result="shape"/>
<feGaussianBlur stdDeviation="55.5991" result="effect1_foregroundBlur_473_896"/>
</filter>
</defs>
</svg>
